<?xml version="1.0" encoding="utf-8"?>
<!-- Generator: Adobe Illustrator 16.0.0, SVG Export Plug-In . SVG Version: 6.00 Build 0)  -->
<!DOCTYPE svg PUBLIC "-//W3C//DTD SVG 1.1//EN" "http://www.w3.org/Graphics/SVG/1.1/DTD/svg11.dtd">
<svg version="1.1" id="Layer_1" focusable="false" xmlns="http://www.w3.org/2000/svg" xmlns:xlink="http://www.w3.org/1999/xlink"
	 x="0px" y="0px" width="255.121px" height="141.73px" viewBox="0 0 255.121 141.73" enable-background="new 0 0 255.121 141.73"
	 xml:space="preserve">
<path fill="#D6000D" d="M196.21,70.865c0,37.915-30.736,68.65-68.65,68.65c-37.915,0-68.65-30.735-68.65-68.65
	s30.736-68.65,68.65-68.65C165.474,2.215,196.21,32.95,196.21,70.865z M119.619,107.215l50.935-50.934
	c1.729-1.729,1.729-4.534,0-6.264l-6.264-6.264c-1.73-1.729-4.535-1.729-6.264,0l-41.54,41.538L97.094,65.898
	c-1.729-1.729-4.534-1.729-6.264,0l-6.264,6.264c-1.729,1.729-1.729,4.534,0,6.264l28.789,28.789
	C115.085,108.944,117.89,108.944,119.619,107.215L119.619,107.215z"/>
</svg>
