<?xml version="1.0" encoding="utf-8"?>
<!-- Generator: Adobe Illustrator 16.0.0, SVG Export Plug-In . SVG Version: 6.00 Build 0)  -->
<!DOCTYPE svg PUBLIC "-//W3C//DTD SVG 1.1//EN" "http://www.w3.org/Graphics/SVG/1.1/DTD/svg11.dtd">
<svg version="1.1" id="Layer_1" focusable="false" xmlns="http://www.w3.org/2000/svg" xmlns:xlink="http://www.w3.org/1999/xlink"
	 x="0px" y="0px" width="255.121px" height="141.73px" viewBox="0 0 255.121 141.73" enable-background="new 0 0 255.121 141.73"
	 xml:space="preserve">
<path fill="#D6000D" d="M176.28,8.858H78.84c-7.338,0-13.287,5.949-13.287,13.287v97.439c0,7.338,5.949,13.287,13.287,13.287h37.993
	V90.71H99.394V70.865h17.439V55.74c0-17.204,10.242-26.707,25.93-26.707c7.512,0,15.369,1.339,15.369,1.339v16.887h-8.656
	c-8.529,0-11.189,5.292-11.189,10.721v12.886h19.039l-3.045,19.845h-15.994v42.162h37.993c7.339,0,13.287-5.949,13.287-13.287
	V22.145C189.567,14.807,183.619,8.858,176.28,8.858z"/>
</svg>
