<?xml version="1.0" encoding="utf-8"?>
<!-- Generator: Adobe Illustrator 16.0.0, SVG Export Plug-In . SVG Version: 6.00 Build 0)  -->
<!DOCTYPE svg PUBLIC "-//W3C//DTD SVG 1.1//EN" "http://www.w3.org/Graphics/SVG/1.1/DTD/svg11.dtd">
<svg version="1.1" id="Layer_1" focusable="false" xmlns="http://www.w3.org/2000/svg" xmlns:xlink="http://www.w3.org/1999/xlink"
	 x="0px" y="0px" width="255.121px" height="141.73px" viewBox="0 0 255.121 141.73" enable-background="new 0 0 255.121 141.73"
	 xml:space="preserve">
<path fill="#D6000D" d="M127.588,39.031c-17.605,0-31.806,14.201-31.806,31.807s14.201,31.806,31.806,31.806
	c17.605,0,31.806-14.2,31.806-31.806S145.193,39.031,127.588,39.031z M127.588,91.515c-11.377,0-20.678-9.273-20.678-20.678
	c0-11.405,9.273-20.679,20.678-20.679s20.678,9.273,20.678,20.679C148.266,82.242,138.964,91.515,127.588,91.515z M168.114,37.73
	c0,4.124-3.321,7.419-7.419,7.419c-4.125,0-7.418-3.322-7.418-7.419s3.321-7.419,7.418-7.419
	C164.792,30.311,168.114,33.634,168.114,37.73z M189.179,45.26c-0.471-9.938-2.74-18.74-10.021-25.993
	c-7.253-7.253-16.056-9.522-25.993-10.021c-10.242-0.581-40.941-0.581-51.183,0c-9.91,0.471-18.713,2.74-25.993,9.993
	c-7.28,7.252-9.522,16.055-10.021,25.993c-0.581,10.242-0.581,40.94,0,51.183c0.471,9.938,2.741,18.741,10.021,25.993
	c7.28,7.253,16.055,9.522,25.993,10.021c10.242,0.582,40.941,0.582,51.183,0c9.938-0.47,18.74-2.74,25.993-10.021
	c7.253-7.252,9.522-16.055,10.021-25.993C189.761,86.173,189.761,55.502,189.179,45.26z M175.948,107.405
	c-2.159,5.426-6.339,9.605-11.792,11.792c-8.166,3.239-27.544,2.491-36.568,2.491c-9.024,0-28.429,0.72-36.567-2.491
	c-5.426-2.159-9.606-6.339-11.792-11.792c-3.239-8.166-2.491-27.544-2.491-36.567c0-9.024-0.72-28.43,2.491-36.567
	c2.159-5.426,6.339-9.605,11.792-11.793c8.166-3.238,27.543-2.491,36.567-2.491c9.024,0,28.429-0.72,36.568,2.491
	c5.425,2.159,9.605,6.339,11.792,11.793c3.239,8.166,2.491,27.543,2.491,36.567C178.439,79.861,179.187,99.266,175.948,107.405z"/>
</svg>
