<?xml version="1.0" encoding="utf-8"?>
<!-- Generator: Adobe Illustrator 16.0.0, SVG Export Plug-In . SVG Version: 6.00 Build 0)  -->
<!DOCTYPE svg PUBLIC "-//W3C//DTD SVG 1.1//EN" "http://www.w3.org/Graphics/SVG/1.1/DTD/svg11.dtd">
<svg version="1.1" id="Layer_1" focusable="false" xmlns="http://www.w3.org/2000/svg" xmlns:xlink="http://www.w3.org/1999/xlink"
	 x="0px" y="0px" width="255.121px" height="141.73px" viewBox="0 0 255.121 141.73" enable-background="new 0 0 255.121 141.73"
	 xml:space="preserve">
<path fill="#D6000D" d="M176.28,8.858H78.84c-7.335,0-13.287,5.951-13.287,13.287v97.439c0,7.336,5.952,13.287,13.287,13.287h97.439
	c7.335,0,13.287-5.951,13.287-13.287V22.145C189.567,14.809,183.615,8.858,176.28,8.858z M162.744,52.816
	c0.055,0.775,0.055,1.578,0.055,2.354c0,24-18.27,51.653-51.653,51.653c-10.298,0-19.848-2.989-27.875-8.138
	c1.467,0.166,2.879,0.221,4.374,0.221c8.499,0,16.305-2.879,22.533-7.75c-7.972-0.166-14.671-5.398-16.969-12.596
	c2.796,0.415,5.315,0.415,8.194-0.332c-8.305-1.688-14.533-8.996-14.533-17.827v-0.222c2.408,1.356,5.232,2.188,8.194,2.298
	c-5.058-3.364-8.093-9.039-8.083-15.114c0-3.377,0.886-6.478,2.463-9.162c8.941,11.017,22.367,18.214,37.426,18.989
	c-2.575-12.318,6.643-22.312,17.716-22.312c5.231,0,9.938,2.188,13.259,5.73c4.098-0.775,8.028-2.298,11.516-4.374
	c-1.355,4.208-4.207,7.751-7.972,9.993c3.653-0.388,7.197-1.412,10.464-2.823C169.387,47.031,166.287,50.242,162.744,52.816z"/>
</svg>
